<svg width="28" height="27" viewBox="0 0 28 27" fill="none" xmlns="http://www.w3.org/2000/svg">
<path d="M23.5515 3.95376C21.6634 2.06583 19.258 0.780171 16.6393 0.259341C14.0205 -0.261489 11.3062 0.00590718 8.83943 1.02772C6.37268 2.04952 4.26432 3.77985 2.78096 5.9999C1.2976 8.21994 0.505859 10.83 0.505859 13.5C0.505859 16.17 1.2976 18.7801 2.78096 21.0001C4.26432 23.2202 6.37268 24.9505 8.83943 25.9723C11.3062 26.9941 14.0205 27.2615 16.6393 26.7407C19.258 26.2198 21.6634 24.9342 23.5515 23.0463C24.8145 21.7979 25.8172 20.3113 26.5015 18.6727C27.1859 17.034 27.5383 15.2758 27.5383 13.5C27.5383 11.7242 27.1859 9.96601 26.5015 8.32735C25.8172 6.68869 24.8145 5.20212 23.5515 3.95376ZM21.4265 6.07876C21.8298 6.4801 22.1998 6.91361 22.5327 7.37501L19.1252 11.3863L16.2127 3.23501C18.1898 3.65669 20.0019 4.64329 21.429 6.07501L21.4265 6.07876ZM6.57024 6.07876C8.2828 4.35752 10.5422 3.28771 12.959 3.05376L14.729 8.01001L6.21399 6.45126C6.33024 6.32376 6.44899 6.19876 6.57274 6.07501L6.57024 6.07876ZM4.00024 16.7125C3.20828 14.2335 3.35962 11.5493 4.42524 9.17501L9.60524 10.125L4.00024 16.7125ZM6.56899 20.925C6.16728 20.5222 5.79898 20.0875 5.46774 19.625L8.87524 15.6138L11.7877 23.765C9.81118 23.343 7.99957 22.3565 6.57274 20.925H6.56899ZM11.114 12.9738L13.0115 10.7425L15.894 11.2688L16.879 14.0263L14.9827 16.2575L12.1002 15.7313L11.114 12.9738ZM21.4252 20.925C19.7124 22.6458 17.4531 23.7155 15.0365 23.95L13.269 19L21.7865 20.555C21.6702 20.6763 21.5515 20.8013 21.429 20.925H21.4252ZM18.3952 16.875L24.0002 10.2875C24.7924 12.7666 24.6406 15.451 23.574 17.825L18.3952 16.875Z" fill="#8C8C8C"/>
</svg>
