<svg width="18" height="18" viewBox="0 0 18 18" fill="none" xmlns="http://www.w3.org/2000/svg">
<path d="M13.9998 8.01675C13.7788 8.01675 13.5669 8.10455 13.4106 8.26083C13.2543 8.41711 13.1665 8.62907 13.1665 8.85008V14.8334C13.1665 15.0544 13.0787 15.2664 12.9224 15.4227C12.7661 15.579 12.5542 15.6667 12.3332 15.6667H3.1665C2.94549 15.6667 2.73353 15.579 2.57725 15.4227C2.42097 15.2664 2.33317 15.0544 2.33317 14.8334V5.66675C2.33317 5.44573 2.42097 5.23377 2.57725 5.07749C2.73353 4.92121 2.94549 4.83341 3.1665 4.83341H9.14984C9.37085 4.83341 9.58281 4.74562 9.73909 4.58934C9.89537 4.43306 9.98317 4.2211 9.98317 4.00008C9.98317 3.77907 9.89537 3.56711 9.73909 3.41083C9.58281 3.25455 9.37085 3.16675 9.14984 3.16675H3.1665C2.50346 3.16675 1.86758 3.43014 1.39874 3.89898C0.929896 4.36782 0.666504 5.00371 0.666504 5.66675V14.8334C0.666504 15.4965 0.929896 16.1323 1.39874 16.6012C1.86758 17.07 2.50346 17.3334 3.1665 17.3334H12.3332C12.9962 17.3334 13.6321 17.07 14.1009 16.6012C14.5698 16.1323 14.8332 15.4965 14.8332 14.8334V8.85008C14.8332 8.62907 14.7454 8.41711 14.5891 8.26083C14.4328 8.10455 14.2209 8.01675 13.9998 8.01675ZM17.2665 1.18341C17.1819 0.97979 17.0201 0.817977 16.8165 0.733415C16.7163 0.690714 16.6087 0.668065 16.4998 0.666748H11.4998C11.2788 0.666748 11.0669 0.754545 10.9106 0.910826C10.7543 1.06711 10.6665 1.27907 10.6665 1.50008C10.6665 1.7211 10.7543 1.93306 10.9106 2.08934C11.0669 2.24562 11.2788 2.33341 11.4998 2.33341H14.4915L5.90817 10.9084C5.83006 10.9859 5.76807 11.0781 5.72576 11.1796C5.68345 11.2812 5.66167 11.3901 5.66167 11.5001C5.66167 11.6101 5.68345 11.719 5.72576 11.8206C5.76807 11.9221 5.83006 12.0143 5.90817 12.0917C5.98564 12.1699 6.07781 12.2319 6.17936 12.2742C6.28091 12.3165 6.38983 12.3382 6.49984 12.3382C6.60985 12.3382 6.71877 12.3165 6.82032 12.2742C6.92187 12.2319 7.01404 12.1699 7.0915 12.0917L15.6665 3.50841V6.50008C15.6665 6.7211 15.7543 6.93306 15.9106 7.08934C16.0669 7.24562 16.2788 7.33342 16.4998 7.33342C16.7209 7.33342 16.9328 7.24562 17.0891 7.08934C17.2454 6.93306 17.3332 6.7211 17.3332 6.50008V1.50008C17.3319 1.39118 17.3092 1.2836 17.2665 1.18341V1.18341Z" fill="#FF383C" fill-opacity="0.5"/>
</svg>
