<svg width="134" height="134" viewBox="0 0 134 134" fill="none" xmlns="http://www.w3.org/2000/svg">
<g filter="url(#filter0_d_375_740)">
<path d="M130 63C130 97.7939 101.794 126 67 126C32.2061 126 4 97.7939 4 63C4 28.2061 32.2061 0 67 0C101.794 0 130 28.2061 130 63Z" fill="#D9D9D9" fill-opacity="0.25" shape-rendering="crispEdges"/>
</g>
<path d="M103.183 92.5313C97.8286 83.2747 89.5775 76.6372 79.9482 73.4907C84.7113 70.6552 88.4119 66.3345 90.4817 61.1923C92.5516 56.05 92.8762 50.3705 91.4058 45.0259C89.9354 39.6813 86.7512 34.9671 82.3422 31.6074C77.9333 28.2476 72.5433 26.428 67.0001 26.428C61.4569 26.428 56.067 28.2476 51.658 31.6074C47.2491 34.9671 44.0649 39.6813 42.5944 45.0259C41.124 50.3705 41.4487 56.05 43.5185 61.1923C45.5884 66.3345 49.289 70.6552 54.0521 73.4907C44.4228 76.6336 36.1716 83.2711 30.8173 92.5313C30.621 92.8515 30.4907 93.2077 30.4343 93.579C30.3778 93.9503 30.3963 94.3292 30.4887 94.6932C30.581 95.0573 30.7454 95.3991 30.972 95.6986C31.1986 95.9981 31.4829 96.2492 31.8081 96.4371C32.1333 96.6249 32.4929 96.7458 32.8655 96.7924C33.2382 96.839 33.6164 96.8106 33.9779 96.7087C34.3394 96.6068 34.6768 96.4335 34.9703 96.1991C35.2637 95.9647 35.5072 95.6738 35.6865 95.3438C42.3099 83.8969 54.0169 77.0625 67.0001 77.0625C79.9833 77.0625 91.6904 83.8969 98.3138 95.3438C98.493 95.6738 98.7365 95.9647 99.03 96.1991C99.3234 96.4335 99.6608 96.6068 100.022 96.7087C100.384 96.8106 100.762 96.839 101.135 96.7924C101.507 96.7458 101.867 96.6249 102.192 96.4371C102.517 96.2492 102.802 95.9981 103.028 95.6986C103.255 95.3991 103.419 95.0573 103.512 94.6932C103.604 94.3292 103.622 93.9503 103.566 93.579C103.51 93.2077 103.379 92.8515 103.183 92.5313ZM47.3126 51.75C47.3126 47.8562 48.4673 44.0498 50.6306 40.8123C52.7939 37.5747 55.8686 35.0513 59.466 33.5612C63.0635 32.0711 67.022 31.6812 70.841 32.4408C74.66 33.2005 78.1679 35.0755 80.9213 37.8289C83.6746 40.5822 85.5497 44.0902 86.3093 47.9092C87.069 51.7282 86.6791 55.6867 85.189 59.2841C83.6989 62.8815 81.1755 65.9563 77.9379 68.1196C74.7003 70.2829 70.8939 71.4375 67.0001 71.4375C61.7804 71.432 56.776 69.356 53.0851 65.665C49.3942 61.9741 47.3182 56.9698 47.3126 51.75Z" fill="#2159D2"/>
<defs>
<filter id="filter0_d_375_740" x="0" y="0" width="134" height="134" filterUnits="userSpaceOnUse" color-interpolation-filters="sRGB">
<feFlood flood-opacity="0" result="BackgroundImageFix"/>
<feColorMatrix in="SourceAlpha" type="matrix" values="0 0 0 0 0 0 0 0 0 0 0 0 0 0 0 0 0 0 127 0" result="hardAlpha"/>
<feOffset dy="4"/>
<feGaussianBlur stdDeviation="2"/>
<feComposite in2="hardAlpha" operator="out"/>
<feColorMatrix type="matrix" values="0 0 0 0 0 0 0 0 0 0 0 0 0 0 0 0 0 0 0.25 0"/>
<feBlend mode="normal" in2="BackgroundImageFix" result="effect1_dropShadow_375_740"/>
<feBlend mode="normal" in="SourceGraphic" in2="effect1_dropShadow_375_740" result="shape"/>
</filter>
</defs>
</svg>
