<svg width="28" height="27" viewBox="0 0 28 27" fill="none" xmlns="http://www.w3.org/2000/svg">
<path d="M27.2973 23.7501C25.5835 20.7422 22.9074 18.3985 19.6998 17.0963C21.2949 15.9 22.4732 14.2321 23.0677 12.3289C23.6622 10.4257 23.6428 8.38374 23.0123 6.49217C22.3818 4.60061 21.1721 2.95538 19.5546 1.78954C17.937 0.623693 15.9937 -0.00366211 13.9998 -0.00366211C12.0059 -0.00366211 10.0626 0.623693 8.44506 1.78954C6.82754 2.95538 5.61784 4.60061 4.98732 6.49217C4.3568 8.38374 4.33742 10.4257 4.93193 12.3289C5.52644 14.2321 6.7047 15.9 8.29981 17.0963C5.09221 18.3985 2.41612 20.7422 0.702311 23.7501C0.596118 23.9208 0.52534 24.1112 0.494186 24.3099C0.463033 24.5085 0.472138 24.7114 0.520963 24.9065C0.569787 25.1015 0.657333 25.2848 0.778396 25.4453C0.899459 25.6059 1.05157 25.7405 1.22568 25.8411C1.39979 25.9417 1.59235 26.0062 1.79191 26.0309C1.99147 26.0556 2.19396 26.0399 2.38733 25.9848C2.58071 25.9296 2.76103 25.8362 2.91757 25.71C3.07411 25.5838 3.20367 25.4274 3.29856 25.2501C5.56356 21.3351 9.56356 19.0001 13.9998 19.0001C18.4361 19.0001 22.4361 21.3363 24.7011 25.2501C24.9067 25.5807 25.2329 25.8185 25.6106 25.913C25.9884 26.0076 26.3881 25.9515 26.7252 25.7567C27.0624 25.5619 27.3106 25.2437 27.4173 24.8692C27.5241 24.4947 27.4811 24.0934 27.2973 23.7501ZM7.49981 9.50009C7.49981 8.21451 7.88103 6.9578 8.59526 5.88888C9.30949 4.81996 10.3246 3.98684 11.5124 3.49487C12.7001 3.0029 14.007 2.87418 15.2679 3.12498C16.5288 3.37579 17.687 3.99485 18.596 4.90389C19.505 5.81293 20.1241 6.97112 20.3749 8.232C20.6257 9.49288 20.497 10.7998 20.005 11.9875C19.5131 13.1752 18.6799 14.1904 17.611 14.9046C16.5421 15.6189 15.2854 16.0001 13.9998 16.0001C12.2765 15.9981 10.6244 15.3126 9.40581 14.0941C8.18725 12.8755 7.5018 11.2234 7.49981 9.50009Z" fill="#2159D2"/>
</svg>
