<svg width="32" height="33" viewBox="0 0 32 33" fill="none" xmlns="http://www.w3.org/2000/svg">
<path d="M14.667 4.5C20.5579 4.50018 25.333 9.27606 25.333 15.167C25.3329 17.6316 24.4947 19.899 23.0908 21.7051L28.9424 27.5576C29.4631 28.0783 29.4631 28.9217 28.9424 29.4424C28.4217 29.9631 27.5783 29.9631 27.0576 29.4424L21.2051 23.5908C19.399 24.9947 17.1316 25.8329 14.667 25.833C8.77606 25.833 4.00018 21.0579 4 15.167C4 9.27596 8.77596 4.5 14.667 4.5ZM14.667 7.16699C10.2487 7.16699 6.66699 10.7487 6.66699 15.167C6.66717 19.5851 10.2488 23.167 14.667 23.167C19.085 23.1668 22.6668 19.585 22.667 15.167C22.667 10.7488 19.0851 7.16717 14.667 7.16699Z" fill="#8C8C8C"/>
</svg>
