<svg width="32" height="25" viewBox="0 0 32 25" fill="none" xmlns="http://www.w3.org/2000/svg">
<path d="M30 22H29.5V6C29.5 5.60218 29.342 5.22064 29.0607 4.93934C28.7794 4.65804 28.3978 4.5 28 4.5H23.5V1.5C23.5 1.10218 23.342 0.720644 23.0607 0.43934C22.7794 0.158035 22.3978 0 22 0H10C9.60218 0 9.22064 0.158035 8.93934 0.43934C8.65804 0.720644 8.5 1.10218 8.5 1.5V9H4C3.60218 9 3.22064 9.15804 2.93934 9.43934C2.65804 9.72064 2.5 10.1022 2.5 10.5V22H2C1.60218 22 1.22064 22.158 0.93934 22.4393C0.658035 22.7206 0.5 23.1022 0.5 23.5C0.5 23.8978 0.658035 24.2794 0.93934 24.5607C1.22064 24.842 1.60218 25 2 25H30C30.3978 25 30.7794 24.842 31.0607 24.5607C31.342 24.2794 31.5 23.8978 31.5 23.5C31.5 23.1022 31.342 22.7206 31.0607 22.4393C30.7794 22.158 30.3978 22 30 22ZM5.5 12H10C10.3978 12 10.7794 11.842 11.0607 11.5607C11.342 11.2794 11.5 10.8978 11.5 10.5V3H20.5V6C20.5 6.39782 20.658 6.77936 20.9393 7.06066C21.2206 7.34196 21.6022 7.5 22 7.5H26.5V22H18.5V18.5C18.5 18.3674 18.4473 18.2402 18.3536 18.1464C18.2598 18.0527 18.1326 18 18 18H14C13.8674 18 13.7402 18.0527 13.6464 18.1464C13.5527 18.2402 13.5 18.3674 13.5 18.5V22H5.5V12ZM13.5 6C13.5 5.60218 13.658 5.22064 13.9393 4.93934C14.2206 4.65804 14.6022 4.5 15 4.5H17C17.3978 4.5 17.7794 4.65804 18.0607 4.93934C18.342 5.22064 18.5 5.60218 18.5 6C18.5 6.39782 18.342 6.77936 18.0607 7.06066C17.7794 7.34196 17.3978 7.5 17 7.5H15C14.6022 7.5 14.2206 7.34196 13.9393 7.06066C13.658 6.77936 13.5 6.39782 13.5 6ZM13.5 10.5C13.5 10.1022 13.658 9.72064 13.9393 9.43934C14.2206 9.15804 14.6022 9 15 9H17C17.3978 9 17.7794 9.15804 18.0607 9.43934C18.342 9.72064 18.5 10.1022 18.5 10.5C18.5 10.8978 18.342 11.2794 18.0607 11.5607C17.7794 11.842 17.3978 12 17 12H15C14.6022 12 14.2206 11.842 13.9393 11.5607C13.658 11.2794 13.5 10.8978 13.5 10.5ZM20 10.5C20 10.1022 20.158 9.72064 20.4393 9.43934C20.7206 9.15804 21.1022 9 21.5 9H23.5C23.8978 9 24.2794 9.15804 24.5607 9.43934C24.842 9.72064 25 10.1022 25 10.5C25 10.8978 24.842 11.2794 24.5607 11.5607C24.2794 11.842 23.8978 12 23.5 12H21.5C21.1022 12 20.7206 11.842 20.4393 11.5607C20.158 11.2794 20 10.8978 20 10.5ZM12 15C12 15.3978 11.842 15.7794 11.5607 16.0607C11.2794 16.342 10.8978 16.5 10.5 16.5H8.5C8.10218 16.5 7.72064 16.342 7.43934 16.0607C7.15804 15.7794 7 15.3978 7 15C7 14.6022 7.15804 14.2206 7.43934 13.9393C7.72064 13.658 8.10218 13.5 8.5 13.5H10.5C10.8978 13.5 11.2794 13.658 11.5607 13.9393C11.842 14.2206 12 14.6022 12 15ZM13.5 15C13.5 14.6022 13.658 14.2206 13.9393 13.9393C14.2206 13.658 14.6022 13.5 15 13.5H17C17.3978 13.5 17.7794 13.658 18.0607 13.9393C18.342 14.2206 18.5 14.6022 18.5 15C18.5 15.3978 18.342 15.7794 18.0607 16.0607C17.7794 16.342 17.3978 16.5 17 16.5H15C14.6022 16.5 14.2206 16.342 13.9393 16.0607C13.658 15.7794 13.5 15.3978 13.5 15ZM20 15C20 14.6022 20.158 14.2206 20.4393 13.9393C20.7206 13.658 21.1022 13.5 21.5 13.5H23.5C23.8978 13.5 24.2794 13.658 24.5607 13.9393C24.842 14.2206 25 14.6022 25 15C25 15.3978 24.842 15.7794 24.5607 16.0607C24.2794 16.342 23.8978 16.5 23.5 16.5H21.5C21.1022 16.5 20.7206 16.342 20.4393 16.0607C20.158 15.7794 20 15.3978 20 15Z" fill="#8C8C8C"/>
</svg>
